<svg width="90" height="60" viewBox="0 0 90 60" fill="none" xmlns="http://www.w3.org/2000/svg">
<g clip-path="url(#clip0_2_361)">
<g clip-path="url(#clip1_2_361)">
<path d="M38.3857 48.3297H39.2104L40.0519 50.4407C40.1482 50.6929 40.2626 51.0658 40.2626 51.0658H40.2745C40.2745 51.0658 40.3889 50.6925 40.4857 50.4407L41.3276 48.3297H42.151L42.5 52.5999H41.7243L41.5498 50.2123C41.526 49.9292 41.5436 49.5502 41.5436 49.5502H41.5317C41.5317 49.5502 41.3934 49.9654 41.2971 50.2123L40.6054 51.8662H39.9317L39.24 50.2123C39.1437 49.965 39.005 49.544 39.005 49.544H38.993C38.993 49.544 39.0112 49.9287 38.9873 50.2123L38.8124 52.5999H38.0367L38.3857 48.3297Z" fill="#A3A4A8"/>
<path d="M44.2718 48.3297H46.7256V48.9971H45.0475V52.6004H44.2718V48.3301V48.3297Z" fill="#A3A4A8"/>
<path d="M48.2161 48.3297H51.674V52.5999H50.8978V48.9967H48.9918V52.5999H48.2161V48.3297Z" fill="#A3A4A8"/>
<path d="M53.8376 51.7942C53.9454 51.8781 54.1199 52.004 54.3182 52.004C54.5351 52.004 54.6553 51.8662 54.745 51.6316L53.0734 48.3297H53.9273L54.8355 50.2357C54.9738 50.5189 55.0763 50.8016 55.0763 50.8016H55.0877C55.0877 50.8016 55.1659 50.5193 55.2627 50.2419L55.9478 48.3301H56.7597L55.4425 51.7036C55.2627 52.1608 54.9676 52.6728 54.3483 52.6728C54.0236 52.6728 53.7528 52.5584 53.4944 52.3777L53.8372 51.7946L53.8376 51.7942Z" fill="#A3A4A8"/>
<path d="M46.2252 22.6294C47.4832 22.6294 48.4321 23.5844 48.4321 24.8067C48.4321 26.029 47.4828 27.0428 46.2252 27.0428C44.9675 27.0428 44.0178 26.0634 44.0178 24.8067C44.0178 23.55 44.9684 22.6294 46.2252 22.6294ZM46.2252 26.3333C47.0066 26.3333 47.6325 25.6725 47.6325 24.8067C47.6325 23.9409 47.0066 23.3393 46.2252 23.3393C45.4437 23.3393 44.8182 23.9767 44.8182 24.8067C44.8182 25.6367 45.4446 26.3333 46.2252 26.3333Z" fill="#E33629"/>
<path d="M56.0975 22.7009H55.3218V26.9721H56.0975V22.7009Z" fill="#4D4D4F"/>
<path d="M58.5346 22.7009H57.6785L56.2672 24.7453L57.7916 26.9721H58.7228L57.1118 24.7161L58.5346 22.7009Z" fill="#4D4D4F"/>
<path d="M76.4771 22.7009H75.7014V26.9721H76.4771V22.7009Z" fill="#4D4D4F"/>
<path d="M78.9142 22.7009H78.0577L76.6463 24.7453L78.1712 26.9721H79.1019L77.4909 24.7161L78.9142 22.7009Z" fill="#4D4D4F"/>
<path d="M69.3832 31.2433H68.6075V35.5144H69.3832V31.2433Z" fill="#4D4D4F"/>
<path d="M71.8203 31.2433H70.9638L69.5524 33.2881L71.0773 35.5149H72.008L70.397 33.2589L71.8203 31.2433Z" fill="#4D4D4F"/>
<path d="M38.3852 22.7014H39.2095L40.0528 24.8133C40.1482 25.0647 40.2639 25.4366 40.2639 25.4366H40.2745C40.2745 25.4366 40.3898 25.0647 40.4857 24.8133L41.3285 22.7014H42.1506L42.5009 26.9717H41.7234L41.5507 24.5841C41.5251 24.3014 41.5454 23.921 41.5454 23.921H41.5326C41.5326 23.921 41.3939 24.3367 41.298 24.5841L40.6054 26.2366H39.9322L39.2409 24.5841C39.1441 24.3367 39.0063 23.9157 39.0063 23.9157H38.9939C38.9939 23.9157 39.0116 24.3009 38.9882 24.5841L38.8133 26.9717H38.0376L38.3857 22.7014H38.3852Z" fill="#4D4D4F"/>
<path d="M52.0636 22.6294C52.6229 22.6294 53.2236 22.8096 53.6384 23.212L53.2673 23.7889C52.9661 23.5305 52.5151 23.3393 52.0994 23.3393C51.1616 23.3393 50.6673 24.0173 50.6673 24.8067C50.6673 25.5961 51.1797 26.3333 52.1056 26.3333C52.5619 26.3333 53.02 26.1116 53.3455 25.7922L53.7528 26.3523C53.3866 26.7243 52.8397 27.0432 52.0747 27.0432C50.7344 27.0432 49.8686 26.0754 49.8686 24.8186C49.8686 23.5619 50.7759 22.6298 52.0641 22.6298L52.0636 22.6294Z" fill="#4D4D4F"/>
<path d="M61.8998 22.6294C63.1569 22.6294 64.1058 23.5844 64.1058 24.8067C64.1058 26.029 63.1569 27.0428 61.8998 27.0428C60.6426 27.0428 59.6911 26.0634 59.6911 24.8067C59.6911 23.55 60.6421 22.6294 61.8998 22.6294ZM61.8998 26.3333C62.6803 26.3333 63.3067 25.6725 63.3067 24.8067C63.3067 23.9409 62.6803 23.3393 61.8998 23.3393C61.1192 23.3393 60.4924 23.9767 60.4924 24.8067C60.4924 25.6367 61.1161 26.3333 61.8998 26.3333Z" fill="#4D4D4F"/>
<path d="M65.7875 22.7014H67.3102C68.0863 22.7014 68.6332 23.0976 68.6332 23.8018C68.6332 24.1989 68.4401 24.5417 68.1155 24.7166V24.7285C68.5837 24.8655 68.8081 25.2984 68.8081 25.7321C68.8081 26.5856 68.1221 26.9712 67.334 26.9712H65.7879V22.7009L65.7875 22.7014ZM67.3159 24.4449C67.6512 24.4449 67.8438 24.2042 67.8438 23.8985C67.8438 23.5928 67.6587 23.3688 67.3027 23.3688H66.5632V24.4449H67.3159ZM67.395 26.3042C67.7903 26.3042 68.0121 26.0453 68.0121 25.6831C68.0121 25.3209 67.7846 25.0709 67.395 25.0709H66.5632V26.3038H67.395V26.3042Z" fill="#4D4D4F"/>
<path d="M72.4445 22.6294C73.002 22.6294 73.6045 22.8096 74.0197 23.212L73.646 23.7889C73.3465 23.5305 72.8955 23.3393 72.4811 23.3393C71.5429 23.3393 71.0486 24.0173 71.0486 24.8067C71.0486 25.5961 71.561 26.3333 72.486 26.3333C72.9428 26.3333 73.4008 26.1116 73.7238 25.7922L74.1337 26.3523C73.767 26.7243 73.2206 27.0432 72.4551 27.0432C71.1153 27.0432 70.2491 26.0754 70.2491 24.8186C70.2491 23.5619 71.1581 22.6298 72.4445 22.6298V22.6294Z" fill="#4D4D4F"/>
<path d="M80.439 22.7014H81.216V25.1658C81.216 25.4203 81.1728 25.828 81.1728 25.828H81.1856C81.1856 25.828 81.3892 25.4137 81.5465 25.1614L83.1588 22.7014H83.927V26.9717H83.1588V24.5121C83.1588 24.2581 83.199 23.8508 83.199 23.8508H83.188C83.188 23.8508 82.9896 24.2581 82.8328 24.5121L81.2094 26.9717H80.439V22.7014Z" fill="#4D4D4F"/>
<path d="M85.8684 22.7014H86.6446V25.1658C86.6446 25.4203 86.6017 25.828 86.6017 25.828H86.6119C86.6119 25.828 86.8177 25.4136 86.9728 25.1614L88.5855 22.7014H89.3559V26.9717H88.5855V24.5121C88.5855 24.2581 88.6271 23.8508 88.6271 23.8508H88.6165C88.6165 23.8508 88.4177 24.2581 88.2609 24.5121L86.637 26.9717H85.868V22.7014H85.8684ZM86.6609 21.6779V21.601H87.2436V21.6779C87.2436 21.9358 87.4494 22.0573 87.6477 22.0573C87.8461 22.0573 88.0577 21.9358 88.0577 21.6721V21.6015H88.6346V21.6783C88.6346 22.2084 88.1712 22.5088 87.6477 22.5088C87.1243 22.5088 86.6609 22.2084 86.6609 21.6783V21.6779Z" fill="#4D4D4F"/>
<path d="M38.1997 31.2441H40.6535V31.9125H38.9754V35.5144H38.1997V31.2441Z" fill="#4D4D4F"/>
<path d="M43.9471 31.1721C45.2043 31.1721 46.1558 32.1285 46.1558 33.3499C46.1558 34.5713 45.2047 35.5873 43.9471 35.5873C42.6895 35.5873 41.7406 34.6075 41.7406 33.3499C41.7406 32.0923 42.6899 31.1721 43.9471 31.1721ZM43.9471 34.8779C44.7285 34.8779 45.3545 34.2157 45.3545 33.3499C45.3545 32.4841 44.7285 31.8815 43.9471 31.8815C43.1657 31.8815 42.5397 32.5194 42.5397 33.3499C42.5397 34.1803 43.1661 34.8779 43.9471 34.8779Z" fill="#4D4D4F"/>
<path d="M47.8371 31.2441H49.4843C50.2834 31.2441 50.8444 31.8038 50.8444 32.6334C50.8444 33.463 50.2834 34.0412 49.4843 34.0412H48.6128V35.5144H47.8371V31.2441ZM49.3394 33.3676C49.7922 33.3676 50.0555 33.0796 50.0555 32.6338C50.0555 32.1881 49.7922 31.9129 49.3505 31.9129H48.6123V33.3676H49.339H49.3394Z" fill="#4D4D4F"/>
<path d="M54.3735 31.1721C55.6289 31.1721 56.5795 32.1285 56.5795 33.3499C56.5795 34.5713 55.6289 35.5873 54.3735 35.5873C53.118 35.5873 52.1648 34.6075 52.1648 33.3499C52.1648 32.0923 53.1141 31.1721 54.3735 31.1721ZM54.3735 34.8779C55.154 34.8779 55.7791 34.2157 55.7791 33.3499C55.7791 32.4841 55.1544 31.8815 54.3735 31.8815C53.5925 31.8815 52.9643 32.5194 52.9643 33.3499C52.9643 34.1803 53.5903 34.8779 54.3735 34.8779Z" fill="#4D4D4F"/>
<path d="M58.0805 34.8465C58.611 34.0465 58.6994 33.0429 58.6994 32.1766V31.2446H61.3533V34.8465H61.8273V36.3577H61.1365V35.5144H58.3637V36.3577H57.6476V34.8465H58.0805ZM60.5772 34.8465V31.9125H59.4353V32.231C59.4353 33.0672 59.3253 34.1251 58.8818 34.8465H60.5772Z" fill="#4D4D4F"/>
<path d="M65.3493 31.1721C65.9103 31.1721 66.5111 31.3528 66.9263 31.7552L66.5544 32.3326C66.2509 32.0755 65.8003 31.8811 65.3873 31.8811C64.4468 31.8811 63.9552 32.5618 63.9552 33.3494C63.9552 34.1371 64.4672 34.8774 65.3908 34.8774C65.8489 34.8774 66.3052 34.6548 66.6299 34.3354L67.0398 34.8951C66.6732 35.2675 66.1268 35.5868 65.3612 35.5868C64.021 35.5868 63.1539 34.6186 63.1539 33.3614C63.1539 32.1042 64.063 31.1721 65.3493 31.1721Z" fill="#4D4D4F"/>
<path d="M75.1855 31.1721C76.4427 31.1721 77.3933 32.1285 77.3933 33.3499C77.3933 34.5713 76.4427 35.5873 75.1855 35.5873C73.9283 35.5873 72.9785 34.6075 72.9785 33.3499C72.9785 32.0923 73.9278 31.1721 75.1855 31.1721ZM75.1855 34.8779C75.9682 34.8779 76.5937 34.2157 76.5937 33.3499C76.5937 32.4841 75.9678 31.8815 75.1855 31.8815C74.4032 31.8815 73.7777 32.5194 73.7777 33.3499C73.7777 34.1803 74.404 34.8779 75.1855 34.8779Z" fill="#4D4D4F"/>
<path d="M79.0745 31.2441H79.8502V33.7099C79.8502 33.9621 79.8091 34.3721 79.8091 34.3721H79.8193C79.8193 34.3721 80.0229 33.9568 80.1802 33.7028L81.793 31.2437H82.5634V35.514H81.793V33.0539C81.793 32.8008 81.8363 32.3926 81.8363 32.3926H81.8217C81.8217 32.3926 81.6229 32.8008 81.4661 33.0539L79.8445 35.514H79.0741V31.2437L79.0745 31.2441ZM79.8683 30.2224V30.1433H80.451V30.2224C80.451 30.4804 80.6568 30.6005 80.8552 30.6005C81.0535 30.6005 81.2629 30.4804 81.2629 30.2166V30.1433H81.8402V30.2224C81.8402 30.752 81.3782 31.052 80.8552 31.052C80.3321 31.052 79.8683 30.752 79.8683 30.2224Z" fill="#4D4D4F"/>
<path d="M38.4267 43.2514C38.5367 43.3354 38.7099 43.4626 38.9082 43.4626C39.1247 43.4626 39.2457 43.3256 39.3358 43.0893L37.6638 39.7891H38.5173L39.4264 41.6952C39.5655 41.9783 39.6662 42.2611 39.6662 42.2611H39.6791C39.6791 42.2611 39.7568 41.9788 39.8544 41.7014L40.5396 39.7895H41.351L40.0342 43.1631C39.8544 43.6203 39.558 44.1314 38.9396 44.1314C38.6149 44.1314 38.3441 44.0161 38.0844 43.8363L38.4272 43.2519L38.4267 43.2514Z" fill="#4D4D4F"/>
<path d="M42.7801 39.7891H43.5558V41.5993H45.5113V39.7891H46.2817V44.0585H45.5113V42.2677H43.5558V44.0585H42.7801V39.7891Z" fill="#4D4D4F"/>
<path d="M48.2156 39.7891H48.9918V42.254C48.9918 42.508 48.9485 42.9162 48.9485 42.9162H48.9613C48.9613 42.9162 49.1662 42.5009 49.3222 42.2487L50.9327 39.7887H51.7031V44.0581H50.9327V41.5989C50.9327 41.3458 50.976 40.9376 50.976 40.9376H50.9632C50.9632 40.9376 50.7649 41.3458 50.6094 41.5989L48.9842 44.0581H48.2152V39.7887L48.2156 39.7891Z" fill="#4D4D4F"/>
<path d="M53.6441 39.7891H55.1655C55.9412 39.7891 56.4894 40.1849 56.4894 40.8881C56.4894 41.2866 56.2963 41.6298 55.9716 41.8034V41.8162C56.4412 41.9549 56.663 42.387 56.663 42.8194C56.663 43.6724 55.9792 44.0581 55.1893 44.0581H53.6446V39.7887L53.6441 39.7891ZM55.1725 41.534C55.5083 41.534 55.7004 41.2928 55.7004 40.984C55.7004 40.6752 55.5153 40.4566 55.1597 40.4566H54.4198V41.534H55.1725ZM55.2498 43.391C55.647 43.391 55.8687 43.1313 55.8687 42.7717C55.8687 42.4121 55.6395 42.1573 55.2498 42.1573H54.4198V43.391H55.2498Z" fill="#4D4D4F"/>
<path d="M58.3513 39.7891H60.9076V40.4561H59.127V41.5737H60.5644V42.2421H59.127V43.391H61.0035V44.0585H58.3513V39.7891Z" fill="#4D4D4F"/>
<path d="M62.6737 39.7891H64.3209C65.1222 39.7891 65.681 40.347 65.681 41.1784C65.681 42.0097 65.1222 42.5853 64.3209 42.5853H63.4494V44.0585H62.6737V39.7891ZM64.1782 41.9108C64.6292 41.9108 64.893 41.6214 64.893 41.1779C64.893 40.7344 64.6292 40.4561 64.1888 40.4561H63.4494V41.9108H64.1782Z" fill="#4D4D4F"/>
<path d="M69.203 39.7158C69.764 39.7158 70.3648 39.8973 70.7791 40.2998L70.4059 40.8762C70.1064 40.6183 69.6536 40.427 69.2388 40.427C68.3005 40.427 67.808 41.1059 67.808 41.8936C67.808 42.6812 68.3186 43.4206 69.2454 43.4206C69.7022 43.4206 70.1585 43.198 70.4854 42.8813L70.8926 43.4383C70.5264 43.8125 69.9778 44.131 69.2145 44.131C67.8743 44.131 67.0085 43.1627 67.0085 41.9055C67.0085 40.6483 67.9162 39.7162 69.2021 39.7162L69.203 39.7158Z" fill="#4D4D4F"/>
<path d="M72.4604 39.7891H73.2361V42.254C73.2361 42.508 73.195 42.9162 73.195 42.9162H73.2056C73.2056 42.9162 73.4114 42.5009 73.5687 42.2487L75.1793 39.7887H75.9497V44.0581H75.1793V41.5989C75.1793 41.3458 75.2226 40.9376 75.2226 40.9376H75.2097C75.2097 40.9376 75.0114 41.3458 74.8546 41.5989L73.2308 44.0581H72.4599V39.7887L72.4604 39.7891Z" fill="#4D4D4F"/>
<path d="M78.8585 40.4561H77.4586V39.7891H81.0309V40.4561H79.6289V44.058H78.8585V40.4561Z" fill="#4D4D4F"/>
<path d="M82.5364 39.7891H85.0932V40.4561H83.3125V41.5737H84.75V42.2421H83.3125V43.391H85.1904V44.0585H82.5364V39.7891Z" fill="#4D4D4F"/>
<path d="M87.8284 40.4561H86.4263V39.7891H90V40.4561H88.5966V44.058H87.828V40.4561H87.8284Z" fill="#4D4D4F"/>
<path d="M34.5673 35.3651C32.0476 32.5769 30.5108 28.8839 30.5108 24.8385C30.5108 16.1738 37.5596 9.12503 46.2247 9.12503C52.8358 9.12503 58.5028 13.231 60.8193 19.0248L62.4002 18.3962C59.8329 11.9747 53.5518 7.42346 46.2243 7.42346C36.6213 7.42346 28.8088 15.2365 28.8088 24.839C28.8088 29.3226 30.5126 33.4153 33.3052 36.5066L34.5668 35.3656L34.5673 35.3651Z" fill="#E33629" stroke="#E33629" stroke-width="0.0441737" stroke-miterlimit="10"/>
<path d="M20.2439 9.90647C21.3646 9.90647 22.2295 9.8751 22.8383 9.81017V9.83844C22.95 9.8296 23.0578 9.82033 23.1563 9.81017V9.90647L21.3788 11.4437L9.80083 22.4456L10.0893 23.887H12.5873C14.7973 23.887 16.6305 24.4396 18.0883 25.5444C19.5455 26.6492 20.274 28.243 20.274 30.3244C20.274 33.0473 19.2244 35.3691 17.1275 37.2906C15.0292 39.2122 12.7318 40.173 10.2333 40.173C10.163 40.173 10.0933 40.1717 10.0235 40.1703C9.98724 40.1703 9.95146 40.173 9.91524 40.173C6.58586 40.173 3.76537 38.8787 1.45287 36.2919L0 37.5305C1.18474 39.0364 2.66633 40.1893 4.44388 40.9898C6.16003 41.7624 7.98882 42.1617 9.92893 42.1882C13.0551 42.1608 15.861 40.9787 18.3462 38.6357C20.8602 36.2658 22.1173 33.4952 22.1173 30.3244C22.1173 29.0438 21.8929 27.8909 21.4446 26.8652C20.9958 25.8408 20.4432 25.032 19.7872 24.4392C19.1303 23.8468 18.3617 23.3582 17.4813 22.9739C16.6 22.5896 15.7758 22.3255 15.0071 22.1815C14.2385 22.0375 13.4699 21.965 12.7013 21.965L26.009 9.42586L26.2975 7.98447H7.35051L6.9662 9.90602H20.2439V9.90647Z" fill="#E33629"/>
</g>
</g>
<defs>
<clipPath id="clip0_2_361">
<rect width="90" height="60" fill="white"/>
</clipPath>
<clipPath id="clip1_2_361">
<rect width="90" height="45.1999" fill="white" transform="translate(0 7.40005)"/>
</clipPath>
</defs>
</svg>
